# xmcd
#
# Track frame offsets: 
#        150
#        15902
#        39395
#        57962
#        74142
#
# Disc length: 1243 seconds
#
# Revision: 0
# Processed by: cddbd v1.5.2PL0 Copyright (c) Steve Scherf et al.
# Submitted via: ExactAudioCopy v0.95b4
#
DISCID=3c04d905
DTITLE=Old School Freight Train - Demo
DYEAR=2007
DGENRE=Acoustic
TTITLE0=Memphis
TTITLE1=Heart Of Glass
TTITLE2=Let Me Go
TTITLE3=Dunedin
TTITLE4=Like You
EXTD=
EXTT0=
EXTT1=
EXTT2=
EXTT3=
EXTT4=
PLAYORDER=
